<svg width="266.99" height="248.05999999999995" xmlns="http://www.w3.org/2000/svg">
    <path fill="#ffffff"
        d="m261.60304,117.53385c-2.04221,-6.52287 -4.17586,-12.9543 -6.30951,-19.37049c-2.72802,-8.16883 -5.54749,-16.26146 -8.39743,-24.30837s-5.76086,-16.04809 -8.71749,-24.0188l-4.1911,-11.24738a19.50766,19.50766 0 0 0 2.86519,-1.34116a19.81246,19.81246 0 0 0 9.89099,-16.64247l0,0l0,0a19.81246,19.81246 0 0 0 -2.36225,-9.81479l0,-0.10668l-0.25909,-0.42673a3.04807,3.04807 0 0 0 -0.25908,-0.44197l-0.09145,-0.12192a19.81246,19.81246 0 0 0 -26.16769,-7.01057l-0.12192,0a1.52404,1.52404 0 0 0 -0.47245,0.24385l-78.4726,45.23338l-17.63309,10.1958l-17.64834,10.18056l-17.63309,10.18056l-54.86529,31.65422l-0.44197,0.24384l-0.45721,0.28957a19.81246,19.81246 0 0 0 -7.05628,26.38106l0.24384,0.47245l0.25909,0.44197a19.81246,19.81246 0 0 0 7.43729,7.07152a18.18175,18.18175 0 0 0 2.42322,1.09731l-4.20634,11.30834q-1.99648,5.34937 -3.90153,10.66825c-1.63072,4.41971 -3.21571,8.85465 -4.78547,13.30484q-4.2673,12.10084 -8.41268,24.29313c-2.11841,6.44667 -4.2673,12.86286 -6.32475,19.37049l-4.87691,0c0,12.39041 17.70929,22.41856 39.62493,22.41856s39.62493,-10.02815 39.62493,-22.41856l-4.9074,0c-2.04221,-6.50763 -4.17586,-12.9543 -6.30951,-19.37049c-2.72802,-8.16884 -5.54749,-16.24623 -8.39743,-24.29313s-5.76086,-16.06334 -8.71749,-24.01881l-4.20634,-11.30834a19.50766,19.50766 0 0 0 2.86519,-1.34115a19.90391,19.90391 0 0 0 7.52874,-26.67063l38.10089,-21.97659l17.55689,-10.1958l17.63309,-10.18056l17.64834,-10.1958l61.28147,-35.37287a19.81246,19.81246 0 0 0 9.83003,8.16884l-4.1911,11.26262q-1.99648,5.34936 -3.90153,10.66825c-1.63072,4.4197 -3.21571,8.86989 -4.78547,13.30483q-4.28254,12.10084 -8.41268,24.30837c-2.11841,6.43143 -4.2673,12.84762 -6.32474,19.37049l-4.89216,0c0,12.37517 17.7093,22.40333 39.62493,22.40333s39.62493,-10.02816 39.62493,-22.40333l-4.95312,0.06096zm-204.99804,67.3319c3.20048,7.7421 6.43143,15.43848 9.75383,23.10438c2.56038,5.80658 5.10552,11.64364 7.7421,17.38925l-67.71291,0c2.65183,-5.76086 5.19697,-11.58267 7.74211,-17.40449q4.98359,-11.47599 9.7843,-23.10438q3.38336,-8.18407 6.67528,-16.45958q1.40211,-3.44432 2.77375,-6.90389l4.5721,-11.78079a2.40798,2.40798 0 0 1 2.27082,-1.52404a2.34701,2.34701 0 0 1 2.24033,1.52404l4.57211,11.78079c3.23095,7.81831 6.37046,15.62137 9.58618,23.37871zm136.43168,-67.3319c2.65182,-5.77609 5.19696,-11.59791 7.7421,-17.41972c3.32239,-7.62018 6.58383,-15.36228 9.78431,-23.10438q3.38336,-8.18408 6.67527,-16.45959q1.40212,-3.44432 2.77375,-6.90388l4.5721,-11.76556a2.40798,2.40798 0 0 1 2.27082,-1.52403a2.33177,2.33177 0 0 1 2.24033,1.52403l4.57211,11.76556c3.04807,7.8183 6.26378,15.62136 9.4795,23.39395s6.43143,15.43848 9.75383,23.08914c2.56038,5.80657 5.10552,11.65887 7.7421,17.40448l-67.60622,0z"
        id="svg_8" stroke="null" />
    <text transform="matrix(1.3997 0 0 1.3997 -108.593 -106.486)" stroke="null" xml:space="preserve"
        text-anchor="start" font-family="'Assistant'" font-size="68" id="svg_2" y="252.27207"
        x="156.2296" stroke-width="0" fill="#ffffff">asta</text>
</svg>